HIERARCHY
ROOT Hips
{
	OFFSET -0.179506 -22.333345 2.821913
	CHANNELS 6 Xposition Yposition Zposition Zrotation Yrotation Xrotation 
	JOINT LeftUpLeg
	{
		OFFSET 6.951974 -9.140623 -0.681533
		CHANNELS 3 Zrotation Yrotation Xrotation
		JOINT LeftLeg
		{
			OFFSET 3.427654 -37.519855 -0.449580
			CHANNELS 3 Zrotation Yrotation Xrotation
			JOINT LeftFoot
			{
				OFFSET -1.359570 -39.796059 -4.369333
				CHANNELS 3 Zrotation Yrotation Xrotation
				JOINT LeftToe
				{
					OFFSET 2.635814 -5.579078 11.928840
					CHANNELS 3 Zrotation Yrotation Xrotation
					End Site
					{
						OFFSET 0.000000 0.000000 0.000000
					}
				}
			}
		}
	}
	JOINT RightUpLeg
	{
		OFFSET -6.767048 -9.052170 -0.431982
		CHANNELS 3 Zrotation Yrotation Xrotation
		JOINT RightLeg
		{
			OFFSET -3.829005 -38.256897 -0.885003
			CHANNELS 3 Zrotation Yrotation Xrotation
			JOINT RightFoot
			{
				OFFSET 1.577377 -39.841461 -4.231180
				CHANNELS 3 Zrotation Yrotation Xrotation
				JOINT RightToe
				{
					OFFSET -2.537174 -4.814398 12.334795
					CHANNELS 3 Zrotation Yrotation Xrotation
					End Site
					{
						OFFSET 0.000000 0.000000 0.000000
					}
				}
			}
		}
	}
	JOINT Spine
	{
		OFFSET -0.253288 10.896323 -2.669631
		CHANNELS 3 Zrotation Yrotation Xrotation
		JOINT Spine1
		{
			OFFSET 0.548704 13.518043 0.109247
			CHANNELS 3 Zrotation Yrotation Xrotation
			JOINT Spine2
			{
				OFFSET 0.145701 5.292222 2.542457
				CHANNELS 3 Zrotation Yrotation Xrotation
				JOINT Neck
				{
					OFFSET -0.277840 21.387037 -4.285703
					CHANNELS 3 Zrotation Yrotation Xrotation
					JOINT Head
					{
						OFFSET 0.515184 6.496960 5.134897
						CHANNELS 3 Zrotation Yrotation Xrotation
						End Site
						{
							OFFSET 0.000000 0.000000 0.000000
						}
					}
				}
				JOINT LeftShoulder
				{
					OFFSET 7.884473 12.174932 -3.408961
					CHANNELS 3 Zrotation Yrotation Xrotation
					JOINT LeftArm
					{
						OFFSET 9.097692 3.046888 -0.886815
						CHANNELS 3 Zrotation Yrotation Xrotation
						JOINT LeftForeArm
						{
							OFFSET 25.961220 -1.277207 -2.745643
							CHANNELS 3 Zrotation Yrotation Xrotation
							JOINT LeftHand
							{
								OFFSET 24.923361 0.898606 -0.117091
								CHANNELS 3 Zrotation Yrotation Xrotation
								End Site
								{
									OFFSET 0.000000 0.000000 0.000000
								}
							}
						}
					}
				}
				JOINT RightShoulder
				{
					OFFSET -8.175920 11.883285 -3.861528
					CHANNELS 3 Zrotation Yrotation Xrotation
					JOINT RightArm
					{
						OFFSET -9.601238 3.255117 -0.914307
						CHANNELS 3 Zrotation Yrotation Xrotation
						JOINT RightForeArm
						{
							OFFSET -25.374195 -1.332924 -2.140099
							CHANNELS 3 Zrotation Yrotation Xrotation
							JOINT RightHand
							{
								OFFSET -25.529810 0.777228 -0.555919
								CHANNELS 3 Zrotation Yrotation Xrotation
								End Site
								{
									OFFSET 0.000000 0.000000 0.000000
								}
							}
						}
					}
				}
			}
		}
	}
}
MOTION
Frames: 17
Frame Time: 0.033333
-38.721523 -348.302734 98.164848 175.238065 1.939763 87.414815 1.220576 2.629433 6.477372 3.618278 -0.531251 -5.895982 -6.192194 8.693354 -0.410134 nan nan nan -1.163556 -2.884777 2.747520 3.566244 -2.789893 2.132133 10.846832 2.560788 0.641194 nan nan nan -1.053446 0.612718 11.235781 4.008942 -0.464524 -5.480975 5.968846 -1.867671 -1.660832 1.796100 -0.188165 -4.287331 -1.294837 -0.854771 5.464261 -23.538585 17.563246 -3.291473 -63.814517 -1.259106 14.075656 -0.800852 -27.394030 4.109758 -3.720901 -20.924222 -24.768235 16.826119 -7.105852 -3.327113 48.941624 3.821341 20.469064 9.526493 33.118898 8.994098 7.157732 12.410602 -20.734433 
-38.637051 -348.309784 98.161621 175.192681 1.936120 87.449612 1.247152 2.589702 6.386563 3.671606 -0.446093 -5.774565 -6.257715 8.700743 -0.388376 nan nan nan -1.099294 -2.836779 2.685930 3.583783 -2.786001 2.167531 10.833211 2.657303 0.574543 nan nan nan -1.066792 0.721030 11.200157 4.040465 -0.447689 -5.478495 5.931051 -1.877635 -1.557142 1.875597 0.012931 -4.372163 -1.326744 -0.918559 5.480946 -23.506934 17.512604 -3.326697 -63.836592 -1.333078 14.137241 -0.770606 -27.341415 4.131752 -3.729324 -20.927431 -24.723373 16.964292 -7.190084 -3.430530 48.964940 3.883031 20.442408 9.315020 33.012450 8.772851 7.010413 12.424520 -20.789345 
-38.563148 -348.306427 98.156967 175.149197 1.939026 87.560554 1.308558 2.543573 6.199575 3.649431 -0.302471 -5.611547 -6.271525 8.689886 -0.477425 nan nan nan -1.041156 -2.774829 2.562747 3.600998 -2.810065 2.182089 10.797929 2.663683 0.554498 nan nan nan -1.089859 0.786195 11.069325 4.083458 -0.409706 -5.464878 5.918113 -1.894893 -1.543013 1.918787 0.180493 -4.381869 -1.410824 -0.906282 5.493705 -23.555493 17.481253 -3.337260 -63.753962 -1.383238 14.192166 -0.871844 -27.231713 4.178134 -4.566028 -20.920634 -24.682450 17.040762 -7.286521 -3.476148 48.926489 3.955238 20.442746 9.161573 32.927361 8.543179 7.519127 12.443218 -21.057282 
-38.495682 -348.304199 98.146454 175.187820 1.931611 87.620954 1.350314 2.449503 6.058674 3.627781 -0.218534 -5.453556 -6.319833 8.665128 -0.630236 nan nan nan -1.007908 -2.734462 2.527330 3.581928 -2.887270 2.158116 10.809087 2.651725 0.603925 nan nan nan -1.103468 0.799725 10.984782 4.095544 -0.428654 -5.425339 5.893351 -1.924764 -1.550043 1.936743 0.233899 -4.328568 -1.421679 -0.928893 5.485117 -23.502897 17.422904 -3.276378 -63.782627 -1.395014 14.275073 -0.805185 -27.272047 4.131633 -5.224035 -20.949141 -24.742237 16.984150 -7.326675 -3.543633 48.968385 4.041857 20.459627 9.163930 32.743802 8.536814 8.119631 12.519819 -21.234971 
-38.409359 -348.295654 98.140251 175.183088 1.895689 87.614372 1.382401 2.411145 6.032707 3.602641 -0.184246 -5.362130 -6.386105 8.661316 -0.617702 nan nan nan -0.968025 -2.715399 2.555812 3.542578 -2.907613 2.117683 10.835252 2.660475 0.601498 nan nan nan -1.124690 0.823189 11.022470 4.065180 -0.433793 -5.444293 5.871437 -1.939228 -1.536552 1.978540 0.226177 -4.363353 -1.340522 -0.974953 5.492981 -23.483747 17.360681 -3.265598 -63.808903 -1.474695 14.292905 -0.708998 -27.149589 3.979604 -5.257889 -20.961725 -24.811340 16.967747 -7.368421 -3.657460 49.032733 4.048737 20.475059 9.245674 32.589281 8.651365 8.208717 12.605232 -21.204616 
-38.307514 -348.292328 98.151672 175.104063 1.906894 87.615414 1.516535 2.421848 6.037618 3.514923 -0.145913 -5.309720 -6.403864 8.670029 -0.636723 nan nan nan -0.878440 -2.700797 2.541347 3.563525 -2.930297 2.154678 10.753723 2.662776 0.503362 nan nan nan -1.203433 0.890799 11.089111 4.075896 -0.359536 -5.517619 5.938981 -1.948165 -1.506731 2.007341 0.205572 -4.358399 -1.242346 -0.979954 5.465339 -23.350771 17.322874 -3.184983 -63.927906 -1.487239 14.335500 -0.661087 -27.160719 3.933318 -5.048885 -20.975119 -25.180516 16.907729 -7.435422 -3.786407 49.061194 4.044738 20.476023 9.428620 32.440633 9.009504 8.109764 12.723694 -20.933352 
-38.219013 -348.266449 98.174644 175.081773 1.889689 87.616089 1.577830 2.492562 6.088331 3.518726 -0.203343 -5.333163 -6.449480 8.674562 -0.659694 nan nan nan -0.836225 -2.637893 2.581614 3.581457 -2.721980 2.222058 10.770183 2.828759 0.235692 nan nan nan -1.298041 0.918183 11.063010 4.116372 -0.340793 -5.458535 5.990373 -1.935565 -1.505137 2.095203 0.262116 -4.195044 -1.220568 -0.947136 5.275325 -23.363744 17.425933 -3.258525 -63.881360 -1.456222 14.379096 -0.750189 -27.241129 3.953215 -4.628710 -20.910964 -25.328687 16.950956 -7.542810 -3.860243 48.941974 3.998453 20.489418 9.597987 32.512071 9.035556 7.692262 12.718487 -21.034569 
-38.158272 -348.240875 98.173157 175.055949 1.813959 87.584962 1.538187 2.550460 6.115734 3.539450 -0.233418 -5.285440 -6.458393 8.682442 -0.680609 nan nan nan -0.873784 -2.712092 2.590364 3.532105 -2.817734 2.282194 10.733679 2.675715 0.394253 nan nan nan -1.307835 0.924007 11.050922 4.080155 -0.344183 -5.430905 5.957148 -1.941029 -1.489827 2.045705 0.227068 -4.105943 -1.163579 -0.930581 5.300817 -23.375985 17.408129 -3.197932 -63.839910 -1.412630 14.388431 -0.694465 -27.461668 3.861904 -4.204690 -20.699325 -25.519280 16.978856 -7.558760 -3.791193 48.933217 3.844070 20.466365 9.588695 32.795448 8.691960 7.199396 12.636480 -21.516892 
-38.090954 -348.215515 98.176826 175.055072 1.719401 87.571523 1.475146 2.540088 6.136212 3.553797 -0.293976 -5.199035 -6.467823 8.692878 -0.761870 nan nan nan -0.979931 -2.764875 2.623710 3.592887 -2.801462 2.311276 10.726758 2.701892 0.394813 nan nan nan -1.317550 0.925161 10.990060 4.037323 -0.377421 -5.342954 5.922607 -1.965045 -1.518256 1.956973 0.122640 -3.926039 -1.179321 -0.950726 5.059272 -23.285537 17.404230 -3.086924 -63.801703 -1.260479 14.531413 -0.648485 -28.149828 3.947524 -3.925815 -20.262356 -25.935373 16.878997 -7.501587 -3.680000 48.939237 3.741498 20.514141 9.754781 33.096426 8.481306 6.637049 12.425944 -22.225469 
-38.013515 -348.186859 98.182823 175.067072 1.616665 87.527620 1.412238 2.534274 6.236585 3.560238 -0.334949 -5.227642 -6.506842 8.666528 -0.799880 nan nan nan -1.057519 -2.772651 2.755009 3.598826 -2.761467 2.220522 10.787105 2.671843 0.423408 nan nan nan -1.320485 0.945166 11.117611 3.974149 -0.380652 -5.441142 5.892595 -2.014414 -1.560887 1.934276 -0.012240 -3.802054 -1.264662 -1.015721 5.026049 -23.360381 17.485714 -3.122835 -63.626372 -1.432693 14.418748 -0.915666 -27.453975 4.025904 -3.961927 -20.543651 -26.003517 16.845295 -7.554683 -3.699925 48.898285 3.733945 20.646833 9.977563 33.096612 8.609458 6.235553 12.493669 -22.429020 
-37.915302 -348.141907 98.176926 174.924497 1.619394 87.553258 1.491494 2.564022 6.278449 3.548327 -0.280297 -5.270880 -6.580266 8.772566 -0.905982 nan nan nan -0.934416 -2.700152 2.761192 3.492747 -2.600720 2.191508 10.771474 2.660669 0.381378 nan nan nan -1.315099 0.947819 11.183936 3.948997 -0.303467 -5.595723 5.924813 -2.000328 -1.561913 1.891567 -0.093764 -3.765713 -1.313905 -0.986683 5.025512 -23.378320 17.624466 -3.152298 -63.597908 -1.372108 14.317857 -0.962161 -27.311667 4.140478 -3.254272 -20.659808 -25.825633 16.817475 -7.600581 -3.695055 48.818478 3.764932 20.643851 10.258175 32.955516 8.908018 5.687274 12.533780 -22.275297 
-37.818813 -348.126953 98.168488 174.910474 1.574650 87.613853 1.490694 2.485045 6.139379 3.551419 -0.251756 -5.106644 -6.582375 8.863267 -0.878613 nan nan nan -0.904882 -2.714103 2.679521 3.502183 -2.606446 2.257289 10.770172 2.628448 0.318697 nan nan nan -1.379086 0.948209 11.108711 3.961340 -0.327083 -5.565735 5.919814 -2.004044 -1.482397 1.924207 0.289796 -3.592669 -1.322767 -0.698464 4.979021 -23.394325 17.768183 -3.291355 -63.502323 -1.378091 14.326832 -1.158776 -27.338835 4.230385 -3.420912 -20.635263 -25.820455 16.937534 -7.683897 -3.812872 48.709804 3.992118 20.658113 10.328138 32.739203 8.925657 5.927472 12.512655 -21.981463 
-37.717155 -348.125366 98.181725 174.939773 1.527146 87.564775 1.513727 2.352354 6.069128 3.544011 -0.217039 -4.802750 -6.538610 8.923721 -0.810612 nan nan nan -0.927380 -2.743559 2.709108 3.576320 -2.665884 2.366376 10.735999 2.672938 0.193659 nan nan nan -1.446709 0.966173 11.130578 3.982982 -0.377692 -5.465044 5.915268 -1.991549 -1.414922 2.028568 0.738000 -3.489137 -1.227926 -0.431286 4.892159 -23.419793 17.812197 -3.458454 -63.448902 -1.430469 14.304916 -1.202198 -27.320117 4.133008 -4.588828 -20.837731 -25.915860 17.034095 -7.737577 -4.029565 48.718814 4.176720 20.657043 10.121465 32.457081 9.024119 7.157128 12.597401 -21.412957 
-37.598263 -348.109833 98.189178 174.869754 1.547846 87.505672 1.680658 2.373890 6.057868 3.437314 -0.224205 -4.540320 -6.659511 8.823456 -1.184853 nan nan nan -0.835718 -2.723412 2.813930 3.564385 -2.652035 2.343152 10.710852 2.783104 0.176450 nan nan nan -1.460574 0.997827 11.122889 4.004953 -0.373530 -5.314501 5.925047 -1.985970 -1.369285 2.111004 0.925746 -3.488858 -1.203184 -0.375999 4.859558 -23.517588 17.727024 -3.545196 -63.414075 -1.405622 14.339255 -0.962188 -27.328374 3.925458 -4.429143 -20.959506 -25.681801 17.076706 -7.667865 -4.164710 48.662410 4.318127 20.655525 10.267829 32.233991 9.178408 7.319426 12.773536 -21.397409 
-37.484200 -348.081024 98.183319 174.808634 1.517752 87.495033 1.770797 2.435750 6.046861 3.364845 -0.190151 -4.429437 -6.714053 8.734009 -1.263164 nan nan nan -0.755134 -2.707696 2.882492 3.496155 -2.643889 2.285561 10.618642 2.806299 0.099762 nan nan nan -1.467045 1.006771 11.072803 3.980475 -0.377167 -5.196039 5.890243 -1.996382 -1.342090 2.098804 0.996354 -3.568081 -1.216456 -0.399293 4.818441 -23.545930 17.670381 -3.548179 -63.335351 -1.392397 14.372309 -0.853112 -27.359307 3.798782 -4.014335 -20.978167 -25.583062 17.068132 -7.629271 -4.208706 48.705357 4.354020 20.704528 10.396091 32.173180 9.202176 6.993816 12.831063 -21.630927 
-37.401649 -348.056335 98.182327 174.745211 1.513783 87.484648 1.842730 2.486241 5.976335 3.321943 -0.203755 -4.202876 -6.717443 8.694431 -1.395231 nan nan nan -0.681477 -2.708829 2.899225 3.442991 -2.589192 2.302352 10.533208 2.829417 0.049970 nan nan nan -1.405377 0.968506 11.048850 3.955263 -0.390196 -5.119651 5.840522 -1.970807 -1.342335 2.062953 0.957730 -3.567725 -1.256147 -0.412196 4.750214 -23.519119 17.711729 -3.568499 -63.364579 -1.287983 14.347279 -0.697138 -27.524505 3.990294 -3.809897 -20.646986 -25.348618 16.990032 -7.573025 -4.197942 48.780421 4.369004 20.692756 10.492193 32.165521 9.269221 6.761324 12.716290 -21.832081 
-37.320847 -348.008453 98.170937 174.621620 1.505892 87.468354 1.901038 2.495272 5.992118 3.273406 -0.191688 -4.081711 -6.679736 8.731431 -1.539955 nan nan nan -0.653539 -2.692400 2.934760 3.457785 -2.457478 2.334962 10.487312 2.891209 -0.004390 nan nan nan -1.376298 0.929601 10.927426 3.961723 -0.401411 -4.947981 5.805628 -1.910941 -1.432866 1.946744 0.993175 -3.460232 -1.339991 -0.398627 4.722763 -23.404716 17.727396 -3.433735 -63.376607 -1.003187 14.362947 -0.486173 -28.305914 4.410013 -4.493294 -20.226039 -25.263806 17.016988 -7.408915 -4.005074 48.671077 4.392221 20.614764 10.464437 32.323628 9.519971 7.194163 12.557437 -21.600489 
